<svg xmlns="http://www.w3.org/2000/svg" xmlns:xlink="http://www.w3.org/1999/xlink" width="36" height="36" id="email">
  <defs>
    <linearGradient id="a">
      <stop offset="0" stop-color="#ff1679"></stop>
      <stop offset="1" stop-color="#ff770b"></stop>
    </linearGradient>
    <linearGradient xlink:href="#a" id="b" x1="992.183" x2="1019.298" y1="516.081" y2="545.959" gradientTransform="translate(-1142.029 421.597)scale(1.15339)" gradientUnits="userSpaceOnUse"></linearGradient>
  </defs>
  <g transform="translate(0 -1016.362)">
    <rect width="36" height="36" y="1016.362" fill="url(#b)" rx="7.608" ry="7.608"></rect>
    <path fill="#fff" d="M17.969 7.969V8a.5.5 0 0 0-.282.094l-2.5 1.875H10.5v3.5L8.812 14.75a.5.5 0 0 0-.28.625.5.5 0 0 0-.032.125v11a.5.5 0 0 0 0 .031.5.5 0 0 0 0 .063.5.5 0 0 0 .031.031.5.5 0 0 0 0 .031.5.5 0 0 0 .031.063.5.5 0 0 0 .032.031.5.5 0 0 0 .031.031.5.5 0 0 0 .031.032.5.5 0 0 0 .344.156.5.5 0 0 0 .031 0h17.875a.5.5 0 0 0 .594-.563V15.47a.5.5 0 0 0-.031-.188.5.5 0 0 0-.25-.531L25.5 13.469V9.938h-.469a.5.5 0 0 0-.031 0h-4.188l-2.53-1.876a.5.5 0 0 0-.313-.093zM18 9.125l1.125.844h-2.281L18 9.125zm-6.5 1.844h13v5.187l-.031.032h-.032L18 20.218l-6.5-4.03V13.75a.5.5 0 0 0 0-.031v-2.75zm8.406 1.781a.5.5 0 0 0-.281.156L16.719 16l-1.375-1.375a.5.5 0 0 0-.344-.156.5.5 0 0 0-.344.844L16.312 17a.5.5 0 0 0 .563.188.5.5 0 0 0 .031 0 .5.5 0 0 0 .032-.032.5.5 0 0 0 .03 0 .5.5 0 0 0 .157-.156l3.219-3.406a.5.5 0 0 0-.313-.844.5.5 0 0 0-.062 0 .5.5 0 0 0-.063 0zM10.5 14.719v.844l-.625-.376.625-.468zm15 .031.594.438-.094.03-.5.313v-.781zm1 1.344v9.468l-5.219-3.5A.5.5 0 0 0 21 22a.5.5 0 0 0-.281.906L25.344 26H10.656l4.625-3.094A.5.5 0 0 0 15 22a.5.5 0 0 0-.281.063l-5.219 3.5v-9.438l1 .625.25.125 6.875 4.313.094.062h.031a.5.5 0 0 0 .063.031.5.5 0 0 0 .093.032.5.5 0 0 0 .094 0 .5.5 0 0 0 .031 0 .5.5 0 0 0 .032 0 .5.5 0 0 0 .03 0 .5.5 0 0 0 .063 0 .5.5 0 0 0 .032-.032.5.5 0 0 0 .03 0L25.5 16.72l1-.625z" color="#000" font-family="sans-serif" font-weight="400" overflow="visible" style="text-indent:0;text-align:start;line-height:normal;text-transform:none;block-progression:tb" transform="translate(0 1016.362)"></path>
  </g>
</svg>